<?xml version="1.0" encoding="UTF-8"?>
<!DOCTYPE svg PUBLIC "-//W3C//DTD SVG 1.1//EN" "http://www.w3.org/Graphics/SVG/1.1/DTD/svg11.dtd">
<svg xmlns="http://www.w3.org/2000/svg" version="1.1" width="576px" height="576px" style="shape-rendering:geometricPrecision; text-rendering:geometricPrecision; image-rendering:optimizeQuality; fill-rule:evenodd; clip-rule:evenodd" xmlns:xlink="http://www.w3.org/1999/xlink">
<g><path style="opacity:1" fill="#5c5c5c" d="M 231.5,2.5 C 229.194,2.99255 226.861,3.32588 224.5,3.5C 226.713,1.68827 229.047,1.35493 231.5,2.5 Z"/></g>
<g><path style="opacity:1" fill="#656565" d="M 343.5,2.5 C 346.293,1.25401 348.96,1.58734 351.5,3.5C 348.833,3.16667 346.167,2.83333 343.5,2.5 Z"/></g>
<g><path style="opacity:1" fill="#717171" d="M 221.5,4.5 C 221.027,5.90632 220.027,6.57298 218.5,6.5C 218.973,5.09368 219.973,4.42702 221.5,4.5 Z"/></g>
<g><path style="opacity:1" fill="#6a6a6a" d="M 209.5,15.5 C 209.573,17.0269 208.906,18.0269 207.5,18.5C 207.427,16.9731 208.094,15.9731 209.5,15.5 Z"/></g>
<g><path style="opacity:1" fill="#6e6e6e" d="M 371.5,23.5 C 372.906,23.9731 373.573,24.9731 373.5,26.5C 372.094,26.0269 371.427,25.0269 371.5,23.5 Z"/></g>
<g><path style="opacity:1" fill="#707070" d="M 373.5,26.5 C 374.906,26.9731 375.573,27.9731 375.5,29.5C 374.094,29.0269 373.427,28.0269 373.5,26.5 Z"/></g>
<g><path style="opacity:1" fill="#6f6f6f" d="M 201.5,27.5 C 201.573,29.0269 200.906,30.0269 199.5,30.5C 199.427,28.9731 200.094,27.9731 201.5,27.5 Z"/></g>
<g><path style="opacity:1" fill="#757575" d="M 380.5,37.5 C 381.906,37.9731 382.573,38.9731 382.5,40.5C 381.094,40.0269 380.427,39.0269 380.5,37.5 Z"/></g>
<g><path style="opacity:1" fill="#717171" d="M 191.5,43.5 C 191.573,45.0269 190.906,46.0269 189.5,46.5C 189.427,44.9731 190.094,43.9731 191.5,43.5 Z"/></g>
<g><path style="opacity:1" fill="#151515" d="M 231.5,2.5 C 237.655,3.15416 241.488,6.48749 243,12.5C 244.979,20.3377 244.812,28.0044 242.5,35.5C 241.076,37.5145 240.41,39.8478 240.5,42.5C 226.499,92.168 221.165,142.501 224.5,193.5C 224.083,197.817 224.75,201.817 226.5,205.5C 227.705,213.523 229.038,221.523 230.5,229.5C 230.41,232.152 231.076,234.485 232.5,236.5C 237.876,256.085 247.542,273.251 261.5,288C 270.466,295.48 280.799,298.98 292.5,298.5C 294.527,298.662 296.527,298.495 298.5,298C 299.056,297.617 299.389,297.117 299.5,296.5C 307.896,292.635 315.229,287.301 321.5,280.5C 322.906,280.027 323.573,279.027 323.5,277.5C 331.6,265.885 337.6,253.218 341.5,239.5C 343.655,237.383 344.655,234.716 344.5,231.5C 355.044,177.717 354.211,124.05 342,70.5C 337.338,54.5165 333.504,38.3499 330.5,22C 330.773,20.4672 331.106,18.9672 331.5,17.5C 332.924,15.4855 333.59,13.1522 333.5,10.5C 334.854,5.47585 338.188,2.80918 343.5,2.5C 346.167,2.83333 348.833,3.16667 351.5,3.5C 360.466,7.79904 367.132,14.4657 371.5,23.5C 371.427,25.0269 372.094,26.0269 373.5,26.5C 373.427,28.0269 374.094,29.0269 375.5,29.5C 377.664,31.822 379.331,34.4887 380.5,37.5C 380.427,39.0269 381.094,40.0269 382.5,40.5C 412.705,88.7369 434.371,140.737 447.5,196.5C 447.294,199.495 447.96,202.162 449.5,204.5C 464.213,265.182 465.213,326.182 452.5,387.5C 450.837,389.438 450.171,391.772 450.5,394.5C 431.915,474.22 385.915,531.72 312.5,567C 300.73,572.472 288.73,573.639 276.5,570.5C 274.485,569.076 272.152,568.41 269.5,568.5C 257.132,564.149 245.465,558.482 234.5,551.5C 234.027,550.094 233.027,549.427 231.5,549.5C 191.176,523.999 161.343,489.332 142,445.5C 119.035,390.752 110.035,333.752 115,274.5C 117.151,244.585 122.318,215.251 130.5,186.5C 131.924,184.485 132.59,182.152 132.5,179.5C 145.23,132.385 164.23,88.0512 189.5,46.5C 190.906,46.0269 191.573,45.0269 191.5,43.5C 193.418,38.6566 196.084,34.3233 199.5,30.5C 200.906,30.0269 201.573,29.0269 201.5,27.5C 202.759,23.9754 204.759,20.9754 207.5,18.5C 208.906,18.0269 209.573,17.0269 209.5,15.5C 212.167,12.1667 215.167,9.16667 218.5,6.5C 220.027,6.57298 221.027,5.90632 221.5,4.5C 222.209,3.59603 223.209,3.26269 224.5,3.5C 226.861,3.32588 229.194,2.99255 231.5,2.5 Z"/></g>
<g><path style="opacity:1" fill="#f9f9f9" d="M 451.5,346.5 C 449.946,350.567 449.28,354.9 449.5,359.5C 442.68,410.787 423.513,456.787 392,497.5C 366.269,528.447 334.436,550.614 296.5,564C 285.296,565.714 274.629,564.048 264.5,559C 231.098,544.034 202.931,522.201 180,493.5C 145.468,446.65 126.468,393.984 123,335.5C 122.5,316.17 122.333,296.836 122.5,277.5C 123.884,272.056 124.55,266.389 124.5,260.5C 124.5,260.167 124.5,259.833 124.5,259.5C 125.889,254.731 126.556,249.731 126.5,244.5C 138.673,162.783 168.173,88.1166 215,20.5C 217.833,17.6667 220.667,14.8333 223.5,12C 228.92,9.1439 233.087,10.3106 236,15.5C 236.667,19.8333 236.667,24.1667 236,28.5C 230.364,49.6805 225.364,71.0139 221,92.5C 211.774,144.733 214.108,196.399 228,247.5C 233.19,261.552 240.19,274.552 249,286.5C 268.796,309.355 291.296,312.522 316.5,296C 329.606,284.3 339.106,270.133 345,253.5C 355.888,221.731 360.721,189.064 359.5,155.5C 359.611,114.832 353.444,75.1653 341,36.5C 339.522,28.8887 339.188,21.222 340,13.5C 341.907,9.99044 344.74,8.82377 348.5,10C 352.916,12.4117 356.749,15.5783 360,19.5C 409.265,90.7242 439.598,169.391 451,255.5C 454.062,285.828 454.229,316.161 451.5,346.5 Z"/></g>
<g><path style="opacity:1" fill="#5f5f5f" d="M 242.5,35.5 C 242.59,38.1522 241.924,40.4855 240.5,42.5C 240.41,39.8478 241.076,37.5145 242.5,35.5 Z"/></g>
<g><path style="opacity:1" fill="#707070" d="M 333.5,10.5 C 333.59,13.1522 332.924,15.4855 331.5,17.5C 331.41,14.8478 332.076,12.5145 333.5,10.5 Z"/></g>
<g><path style="opacity:1" fill="#565656" d="M 132.5,179.5 C 132.59,182.152 131.924,184.485 130.5,186.5C 130.41,183.848 131.076,181.515 132.5,179.5 Z"/></g>
<g><path style="opacity:1" fill="#616161" d="M 224.5,193.5 C 225.617,197.295 226.283,201.295 226.5,205.5C 224.75,201.817 224.083,197.817 224.5,193.5 Z"/></g>
<g><path style="opacity:1" fill="#4f4f4f" d="M 447.5,196.5 C 448.768,198.905 449.435,201.572 449.5,204.5C 447.96,202.162 447.294,199.495 447.5,196.5 Z"/></g>
<g><path style="opacity:1" fill="#585858" d="M 230.5,229.5 C 231.924,231.515 232.59,233.848 232.5,236.5C 231.076,234.485 230.41,232.152 230.5,229.5 Z"/></g>
<g><path style="opacity:1" fill="#555555" d="M 344.5,231.5 C 344.655,234.716 343.655,237.383 341.5,239.5C 342.129,236.603 343.129,233.936 344.5,231.5 Z"/></g>
<g><path style="opacity:1" fill="#b1b1b1" d="M 126.5,244.5 C 126.556,249.731 125.889,254.731 124.5,259.5C 124.444,254.269 125.111,249.269 126.5,244.5 Z"/></g>
<g><path style="opacity:1" fill="#818181" d="M 124.5,260.5 C 124.55,266.389 123.884,272.056 122.5,277.5C 122.45,271.611 123.116,265.944 124.5,260.5 Z"/></g>
<g><path style="opacity:1" fill="#6e6e6e" d="M 323.5,277.5 C 323.573,279.027 322.906,280.027 321.5,280.5C 321.427,278.973 322.094,277.973 323.5,277.5 Z"/></g>
<g><path style="opacity:1" fill="#515151" d="M 299.5,296.5 C 299.389,297.117 299.056,297.617 298.5,298C 296.527,298.495 294.527,298.662 292.5,298.5C 294.657,297.593 296.99,296.927 299.5,296.5 Z"/></g>
<g><path style="opacity:1" fill="#aaaaaa" d="M 451.5,346.5 C 451.562,351.076 450.895,355.409 449.5,359.5C 449.28,354.9 449.946,350.567 451.5,346.5 Z"/></g>
<g><path style="opacity:1" fill="#686868" d="M 452.5,387.5 C 452.279,390.067 451.612,392.401 450.5,394.5C 450.171,391.772 450.837,389.438 452.5,387.5 Z"/></g>
<g><path style="opacity:1" fill="#050505" d="M 313.5,508.5 C 314.924,506.485 315.59,504.152 315.5,501.5C 318.17,490.16 323.003,479.826 330,470.5C 343.27,452.552 360.436,440.052 381.5,433C 386.275,431.841 390.608,432.674 394.5,435.5C 395.361,449.071 392.861,462.071 387,474.5C 378.214,493.619 365.381,509.452 348.5,522C 340.54,527.157 331.873,529.157 322.5,528C 314.737,523.727 311.737,517.227 313.5,508.5 Z"/></g>
<g><path style="opacity:1" fill="#050505" d="M 185.5,433.5 C 195.585,433.701 204.919,436.535 213.5,442C 239.096,456.933 255.596,478.767 263,507.5C 264.98,524.519 257.48,531.686 240.5,529C 225.602,522.424 213.435,512.591 204,499.5C 189.69,480.903 182.357,459.903 182,436.5C 183.518,435.837 184.685,434.837 185.5,433.5 Z"/></g>
<g><path style="opacity:1" fill="#585858" d="M 315.5,501.5 C 315.59,504.152 314.924,506.485 313.5,508.5C 313.41,505.848 314.076,503.515 315.5,501.5 Z"/></g>
<g><path style="opacity:1" fill="#6f6f6f" d="M 231.5,549.5 C 233.027,549.427 234.027,550.094 234.5,551.5C 232.973,551.573 231.973,550.906 231.5,549.5 Z"/></g>
<g><path style="opacity:1" fill="#535353" d="M 269.5,568.5 C 272.152,568.41 274.485,569.076 276.5,570.5C 273.848,570.59 271.515,569.924 269.5,568.5 Z"/></g>
</svg>
